<?xml version="1.0" encoding="utf-8"?>
<!-- Generator: Adobe Illustrator 24.0.1, SVG Export Plug-In . SVG Version: 6.00 Build 0)  -->
<svg version="1.1" id="Layer_1" xmlns:svgjs="http://svgjs.com/svgjs"
	 xmlns="http://www.w3.org/2000/svg" xmlns:xlink="http://www.w3.org/1999/xlink" x="0px" y="0px" viewBox="0 0 512 512"
	 style="enable-background:new 0 0 512 512;" xml:space="preserve">
<style type="text/css">
	.st0{fill:#FFBB00;}
</style>
<g>
	<g>
		<g>
			<path class="st0" d="M257.7,162.2c-48.6,0-88,39.4-88,88c0.1,48.6,39.4,87.9,88,88c48.6,0,88-39.4,88-88S306.3,162.2,257.7,162.2
				z M257.7,322.2c-39.8,0-72-32.2-72-72c0-39.7,32.3-72,72-72c39.8,0,72,32.2,72,72C329.7,290,297.5,322.2,257.7,322.2z"/>
		</g>
	</g>
	<g>
		<g>
			<path class="st0" d="M372.4,226.2c-3.3-3-6.1-6.6-8.2-10.6c-0.8-4.7-0.7-9.4,0.3-14c2.4-9,1.2-18.5-3.3-26.6
				c-6.4-6.8-15.1-10.9-24.4-11.4c-4.6-0.5-9.1-1.9-13.3-4c-3.2-3.3-5.9-7.1-7.7-11.3c-3.4-8.8-10-15.9-18.5-19.9
				c-9-1.7-18.3,0.1-26,5.1c-4.2,2.4-8.8,4-13.6,4.7c-4.8-0.7-9.4-2.3-13.6-4.7c-7.7-4.9-17-6.8-26-5.1c-8.5,4-15.2,11.1-18.5,19.9
				c-1.9,4.2-4.5,8-7.7,11.3c-4.1,2.1-8.7,3.5-13.3,4c-9.3,0.5-18.1,4.6-24.4,11.4c-4.5,8.1-5.6,17.6-3.3,26.6c1,4.6,1.1,9.4,0.3,14
				c-2,4-4.8,7.6-8.1,10.6c-7.4,6-12.1,14.6-13.3,24c1.2,9.4,5.9,18,13.3,24c3.3,3,6.1,6.6,8.2,10.6c0.8,4.7,0.7,9.4-0.3,14
				c-2.4,9-1.2,18.5,3.3,26.6c6.4,6.8,15.1,10.9,24.4,11.4c4.6,0.5,9.1,1.9,13.3,4c3.2,3.3,5.9,7.1,7.7,11.3
				c3.4,8.8,10,15.9,18.5,19.9c2,0.7,4.2,1,6.3,1c6.9-0.6,13.6-2.6,19.7-6c4.2-2.4,8.8-4,13.6-4.7c4.8,0.7,9.4,2.3,13.6,4.7
				c7.7,4.9,17,6.7,26,5.1c8.5-4,15.2-11.1,18.5-19.9c1.9-4.2,4.5-8,7.7-11.3c4.1-2.1,8.7-3.5,13.3-4c9.3-0.5,18.1-4.6,24.4-11.4
				c4.5-8.1,5.6-17.6,3.3-26.6c-1-4.6-1.1-9.4-0.3-14c2-4,4.8-7.6,8.1-10.6c7.4-6,12.1-14.6,13.3-24
				C384.6,240.8,379.8,232.2,372.4,226.2z M360.8,263.2c-5.1,4.6-9.1,10.3-11.8,16.7c-1.7,6.9-1.8,14.1-0.4,21
				c1.3,5,1.2,10.2-0.3,15.1c-2,2.7-8.6,4-14.5,5.1c-7,0.8-13.7,3.1-19.7,6.8c-5.3,4.5-9.5,10.2-12.4,16.6
				c-2.9,5.3-6.1,11.2-9.4,12.3c-3,1-9-1.8-14.2-4.3c-6.3-3.5-13.2-5.7-20.4-6.2c-7.2,0.6-14.1,2.7-20.4,6.2
				c-5.3,2.5-11.2,5.4-14.2,4.3c-3.3-1.1-6.6-7-9.4-12.3c-2.9-6.4-7.1-12-12.4-16.6c-6-3.7-12.7-6-19.7-6.8
				c-5.8-1.1-12.5-2.3-14.5-5.1c-1.5-4.9-1.6-10.2-0.4-15.2c1.4-6.9,1.3-14.1-0.4-21c-2.6-6.4-6.7-12-11.8-16.7
				c-4.2-4.4-8.9-9.4-8.9-13s4.7-8.6,8.9-13c5.1-4.6,9.1-10.3,11.8-16.7c1.7-6.9,1.8-14.1,0.4-21c-1.3-5-1.2-10.2,0.3-15.1
				c2-2.7,8.6-4,14.5-5.1c7-0.8,13.7-3.1,19.7-6.8c5.3-4.5,9.6-10.2,12.4-16.6c2.9-5.3,6.1-11.2,9.4-12.3c0.5-0.1,0.9-0.2,1.4-0.2
				c4.5,0.7,8.8,2.3,12.8,4.5c6.2,3.5,13.2,5.7,20.4,6.2c7.2-0.6,14.1-2.7,20.4-6.2c5.3-2.5,11.2-5.3,14.2-4.3
				c3.3,1.1,6.6,7,9.4,12.3c2.9,6.4,7.1,12,12.4,16.6c6,3.7,12.7,6,19.7,6.8c5.8,1.1,12.5,2.3,14.5,5.1c1.5,4.9,1.6,10.2,0.4,15.2
				c-1.4,6.9-1.3,14.1,0.4,21c2.6,6.4,6.7,12,11.8,16.7c4.2,4.4,8.9,9.4,8.9,13S365,258.8,360.8,263.2z"/>
		</g>
	</g>
	<g>
		<g>
			<path class="st0" d="M415.1,108.6C375,63.8,317.8,38.2,257.7,38.2c-116.6,0.1-211.1,94.7-211,211.4
				c0.1,116.6,94.7,211.1,211.4,211c10,0,19.9-0.7,29.8-2.1l-2.7-19c-105,15.2-202.4-57.6-217.6-162.6S125.2,74.5,230.1,59.3
				s202.4,57.6,217.6,162.6c9.2,63.7-14.1,127.7-62,170.6l12.8,14.3C485.4,329.1,492.9,195.5,415.1,108.6z"/>
		</g>
	</g>
	<g>
		<g>
			<path class="st0" d="M344.1,393.4c-21.2,0-38.4,17.2-38.4,38.4s17.2,38.4,38.4,38.4c21.2,0,38.4-17.2,38.4-38.4
				C382.5,410.6,365.3,393.4,344.1,393.4z M344.1,451c-10.6,0-19.2-8.6-19.2-19.2s8.6-19.2,19.2-19.2c10.6,0,19.2,8.6,19.2,19.2
				S354.7,451,344.1,451z"/>
		</g>
	</g>
</g>
</svg>
