<?xml version="1.0"?>
<svg xmlns="http://www.w3.org/2000/svg" xmlns:xlink="http://www.w3.org/1999/xlink" xmlns:svgjs="http://svgjs.com/svgjs" version="1.1" width="512" height="512" x="0" y="0" viewBox="0 0 512 512" style="enable-background:new 0 0 512 512" xml:space="preserve"><g><g xmlns="http://www.w3.org/2000/svg"><path d="m436 160h-120c-24.508 0-46.306 11.818-60 30.053-13.695-18.235-35.492-30.053-60-30.053h-120c-41.355 0-75 33.645-75 75v90c0 12.02 4.68 23.321 13.18 31.82s19.8 13.18 31.82 13.18c5.258 0 10.305-.915 15-2.58v144.58h150v-144.58c4.695 1.665 9.741 2.58 15 2.58 11.508 0 22.017-4.347 29.982-11.48 8.263 7.419 18.827 11.48 30.018 11.48 5.258 0 10.305-.915 15-2.58v144.58h150v-144.58c4.695 1.665 9.741 2.58 15 2.58 24.813 0 45-20.187 45-45v-90c0-41.355-33.646-75-75-75zm-210 180c-8.268 0-14.994-6.724-15-14.99v-105.01h-30v105 157h-30v-157h-30v157h-30v-156.992c0-.008 0-105.008 0-105.008h-30v105.003c-.002 8.27-6.73 14.997-15 14.997-4.006 0-7.773-1.56-10.606-4.394-2.833-2.833-4.394-6.599-4.394-10.606v-90c0-24.813 20.187-45 45-45h120c24.813 0 45 20.187 45 45v90c0 8.271-6.729 15-15 15zm255-15c0 8.271-6.729 15-15 15-8.268 0-14.994-6.724-15-14.99v-105.01h-30v105 157h-30v-157h-30v157h-30v-156.992c0-.008 0-105.008 0-105.008h-30v105.003c-.002 8.27-6.73 14.997-15 14.997-4.006 0-7.773-1.56-10.606-4.394-2.833-2.833-4.393-6.6-4.393-10.606v-90c0-24.813 20.187-45 45-45h119.999c24.813 0 45 20.187 45 45z" fill="#ffbb00" data-original="#000000" style=""/><path d="m376 130c35.841 0 65-29.159 65-65s-29.159-65-65-65-65 29.159-65 65 29.159 65 65 65zm0-100c19.299 0 35 15.701 35 35s-15.701 35-35 35-35-15.701-35-35 15.701-35 35-35z" fill="#ffbb00" data-original="#000000" style=""/><path d="m201 0h-130v130h130zm-30 100h-70v-70h70z" fill="#ffbb00" data-original="#000000" style=""/></g></g></svg>
